<?xml version="1.0" standalone="no"?><!DOCTYPE svg PUBLIC "-//W3C//DTD SVG 1.1//EN" "http://www.w3.org/Graphics/SVG/1.1/DTD/svg11.dtd"><svg t="1736420397445" class="icon" viewBox="0 0 1024 1024" version="1.1" xmlns="http://www.w3.org/2000/svg" p-id="2408" xmlns:xlink="http://www.w3.org/1999/xlink" width="32" height="32"><path d="M921.6 768a51.2 51.2 0 0 1 0 102.4H102.4a51.2 51.2 0 0 1 0-102.4h819.2z m0-204.8a51.2 51.2 0 0 1 0 102.4H102.4a51.2 51.2 0 0 1 0-102.4h819.2z m0-204.8a51.2 51.2 0 0 1 0 102.4H102.4a51.2 51.2 0 1 1 0-102.4h819.2z m0-204.8a51.2 51.2 0 0 1 0 102.4H102.4a51.2 51.2 0 1 1 0-102.4h819.2z" p-id="2409"></path></svg>